<?xml version="1.0" standalone="no"?>
<!DOCTYPE svg PUBLIC "-//W3C//DTD SVG 20010904//EN"
 "http://www.w3.org/TR/2001/REC-SVG-20010904/DTD/svg10.dtd">
<svg version="1.0" xmlns="http://www.w3.org/2000/svg"
 width="512.000000pt" height="512.000000pt" viewBox="0 0 512.000000 512.000000"
 preserveAspectRatio="xMidYMid meet">
<g transform="translate(0.000000,512.000000) scale(0.100000,-0.100000)"
fill="#000000" stroke="none">
<path d="M2240 4093 c-306 -53 -616 -224 -850 -469 -216 -226 -352 -487 -412
-787 -29 -148 -31 -426 -5 -561 22 -106 64 -243 78 -252 23 -14 21 11 -9 113
-17 60 -37 149 -43 198 -16 123 -6 372 21 498 109 516 490 961 982 1147 174
65 283 84 498 84 167 0 196 -3 304 -28 270 -63 499 -182 725 -378 355 -306
579 -774 584 -1215 2 -98 5 -133 14 -133 21 0 26 48 20 199 -10 234 -52 400
-153 611 -160 333 -391 584 -721 780 -166 99 -334 161 -529 195 -112 19 -388
19 -504 -2z"/>
<path d="M2360 4019 c-326 -32 -628 -179 -875 -424 -274 -270 -418 -579 -447
-954 -19 -241 13 -442 104 -661 42 -101 45 -105 73 -103 17 1 81 5 143 9 74 5
158 3 241 -6 70 -7 141 -10 157 -5 28 7 28 8 -26 26 -154 54 -363 73 -483 45
l-59 -14 -19 45 c-39 91 -47 80 121 172 l151 84 97 126 c262 343 436 550 450
537 10 -11 -68 -115 -165 -223 -101 -112 -196 -229 -297 -368 -32 -44 -79
-101 -104 -127 -26 -27 -42 -48 -37 -48 15 0 119 65 201 126 55 40 81 53 95
49 24 -8 40 2 163 104 65 54 110 84 139 91 23 6 70 19 104 29 l61 18 -221
-219 c-263 -261 -228 -255 107 16 95 77 213 156 232 156 5 0 -68 -77 -161
-171 -172 -174 -176 -188 -18 -70 170 128 458 440 539 585 14 25 30 46 34 46
9 0 149 -151 163 -176 15 -26 -2 -29 -27 -5 l-24 23 -52 -41 c-28 -23 -62 -41
-75 -41 -18 0 -31 -13 -56 -57 -18 -32 -45 -77 -61 -100 -15 -23 -28 -43 -28
-46 0 -2 35 -2 78 0 l77 4 -82 -49 c-45 -26 -132 -66 -194 -86 -62 -21 -162
-61 -223 -88 -192 -86 -308 -134 -413 -172 -57 -20 -118 -44 -135 -52 l-33
-15 50 6 c133 17 283 68 520 178 210 97 221 100 365 101 69 0 163 -3 210 -7
100 -8 85 2 -55 37 l-90 22 80 56 c55 39 96 78 133 127 29 39 58 71 65 71 6 0
21 -7 31 -15 18 -14 18 -16 3 -33 -16 -17 -15 -20 14 -48 17 -16 38 -45 47
-64 23 -48 143 -167 221 -220 64 -43 209 -115 217 -107 2 2 -42 32 -98 67
-112 69 -228 172 -228 202 0 10 3 18 8 18 13 0 54 -31 115 -86 31 -30 78 -68
104 -86 l47 -32 -23 33 c-36 50 -369 394 -395 408 -20 10 -44 68 -33 79 1 2
30 -7 62 -19 55 -20 79 -41 300 -263 132 -132 275 -266 318 -298 77 -57 244
-152 253 -144 2 3 -33 28 -79 56 -110 67 -354 298 -335 318 7 6 163 -62 202
-88 17 -12 44 -33 60 -47 l29 -26 -27 40 c-24 37 -33 65 -20 65 3 0 21 -12 41
-27 19 -16 99 -66 177 -113 113 -69 140 -90 138 -105 -2 -11 -18 -54 -36 -95
l-33 -75 -53 3 c-30 2 -171 23 -315 47 -143 24 -261 42 -263 40 -2 -2 17 -17
42 -35 25 -17 46 -33 46 -36 0 -5 -57 30 -143 89 -138 93 -413 205 -556 228
-142 22 -171 12 -485 -169 -169 -96 -410 -213 -486 -236 -28 -8 -119 -23 -202
-32 -83 -9 -173 -21 -199 -28 l-47 -13 -7 31 c-6 23 -9 26 -12 13 -3 -10 8
-37 23 -60 41 -63 165 -207 178 -207 6 0 52 17 101 39 50 21 147 57 217 80
l127 41 918 0 c604 0 931 4 955 10 21 6 42 19 47 28 8 15 2 21 -42 36 -116 40
-254 97 -282 116 l-30 20 30 -6 c17 -3 117 -15 223 -27 l192 -22 -25 -38 -26
-37 24 0 c27 0 54 36 105 136 33 65 82 197 82 220 0 9 -11 14 -31 14 -26 0
-29 3 -20 14 43 52 59 378 27 556 -37 205 -145 458 -274 640 -36 52 -121 149
-187 216 -278 279 -605 439 -966 473 -126 12 -137 12 -259 0z m426 -47 c398
-93 751 -337 984 -682 114 -169 212 -397 245 -571 8 -45 14 -83 13 -84 -2 -1
-18 -7 -36 -13 -41 -14 -59 -3 -208 127 -57 50 -110 91 -117 91 -8 0 -47 -13
-85 -30 -39 -16 -75 -30 -80 -30 -5 0 -15 12 -23 26 -22 43 -269 264 -293 264
-12 0 -46 -15 -76 -34 -40 -25 -59 -32 -71 -25 -36 19 -100 105 -121 163 -12
33 -45 90 -72 125 -27 36 -71 97 -97 136 -53 80 -75 105 -93 105 -7 0 -59 -51
-117 -114 -87 -93 -113 -130 -149 -205 -24 -50 -51 -93 -59 -95 -9 -2 -28 -7
-42 -10 -18 -4 -38 -23 -59 -56 -18 -28 -46 -58 -63 -66 -28 -15 -32 -15 -68
5 -54 31 -76 18 -207 -116 -131 -135 -113 -133 -237 -24 -44 39 -88 71 -98 71
-25 0 -209 -136 -272 -200 -65 -67 -91 -80 -166 -80 l-61 0 7 58 c52 438 312
837 707 1085 152 95 349 169 524 197 105 16 387 6 490 -18z m-33 -650 c15 -23
43 -59 61 -80 22 -24 36 -52 41 -81 4 -24 18 -75 32 -114 13 -38 22 -74 20
-80 -2 -6 -17 9 -34 34 -17 24 -45 57 -62 73 -17 16 -38 51 -47 78 -8 26 -37
81 -64 123 l-49 74 11 55 12 55 26 -47 c14 -26 38 -66 53 -90z m-74 -178 c15
-51 35 -89 71 -135 148 -191 189 -244 186 -247 -2 -1 -22 2 -45 7 -33 7 -61
28 -132 96 -104 101 -89 102 -202 -25 -150 -171 -324 -326 -344 -306 -10 10
25 54 155 192 149 160 219 239 232 265 8 14 5 30 -14 66 l-24 48 41 80 c45 90
37 94 76 -41z m327 -201 c34 -52 54 -72 54 -56 0 5 -5 14 -11 20 -6 6 -9 17
-7 25 9 23 70 -52 128 -158 32 -58 94 -146 151 -214 54 -63 96 -116 94 -118
-21 -23 -205 174 -290 312 -39 63 -59 85 -90 100 -22 10 -48 25 -58 34 -16 14
-57 128 -57 156 1 14 39 -31 86 -101z m139 47 c-10 -11 -25 -20 -34 -20 -10 0
-5 8 14 20 38 25 43 25 20 0z m175 -102 c60 -56 113 -111 119 -122 5 -12 25
-55 44 -97 24 -52 61 -108 121 -178 47 -56 86 -104 86 -106 0 -13 -28 2 -129
70 -62 41 -116 75 -120 75 -5 0 -45 39 -91 86 -63 66 -79 88 -69 95 19 12 76
11 84 -1 11 -17 107 -91 112 -86 9 9 -57 94 -96 126 -33 25 -44 29 -60 21 -41
-22 -60 -14 -71 32 -6 23 -20 71 -31 106 -20 67 -22 81 -13 81 3 0 54 -46 114
-102z m-1280 40 c0 -6 19 -43 43 -83 l44 -72 -21 -25 c-12 -13 -36 -46 -54
-72 -27 -40 -35 -45 -51 -37 -21 12 -28 6 -55 -47 -10 -19 -19 -32 -22 -30 -2
3 1 45 7 94 9 69 18 99 40 133 16 24 34 70 40 102 6 32 15 56 20 53 5 -3 9
-10 9 -16z m116 -35 c24 -22 32 -43 16 -43 -13 0 -81 60 -93 82 -11 20 -11 20
21 2 18 -11 43 -29 56 -41z m-591 -135 c6 -43 12 -52 60 -90 45 -35 52 -45 44
-61 -10 -17 -13 -16 -54 18 -35 28 -50 34 -70 29 -18 -4 -24 -11 -21 -21 3 -8
6 -21 6 -29 0 -8 10 -14 26 -14 31 0 64 -17 64 -32 0 -16 -110 -148 -124 -148
-19 0 -76 -34 -161 -95 -100 -71 -148 -97 -202 -105 l-42 -7 -11 51 c-6 28
-14 86 -17 128 l-6 78 73 75 c73 75 100 93 80 55 -22 -42 9 -17 91 72 46 50
120 118 164 150 l80 59 7 -33 c4 -18 10 -54 13 -80z m126 -1 c45 -40 52 -50
43 -65 -19 -29 -39 -24 -87 21 -40 37 -47 49 -47 81 0 43 0 43 91 -37z m2110
-107 c76 -82 144 -144 181 -166 58 -35 58 -36 57 -82 0 -26 -6 -83 -12 -127
-15 -97 -23 -101 -109 -49 -79 48 -122 86 -161 143 -17 25 -72 98 -121 161
-49 63 -95 129 -102 145 l-12 30 41 6 c31 4 45 2 53 -9 8 -11 14 -5 28 32 10
25 21 46 26 46 4 0 63 -59 131 -130z m-1028 -607 c71 -46 163 -103 205 -126
41 -23 77 -48 80 -54 9 -29 -54 -9 -199 62 -85 41 -160 75 -167 75 -45 0 92
-94 234 -160 99 -47 104 -51 104 -80 l0 -30 -123 0 -124 0 -92 142 c-85 130
-91 143 -75 155 16 12 16 14 1 31 -10 10 -17 35 -17 56 0 45 -8 48 173 -71z"/>
<path d="M2299 3829 c-126 -18 -232 -72 -314 -160 -33 -36 -44 -54 -37 -61 8
-8 29 6 72 45 98 88 260 156 373 157 38 0 50 13 21 24 -19 7 -40 6 -115 -5z"/>
<path d="M3100 3550 c0 -5 5 -10 10 -10 6 0 10 5 10 10 0 6 -4 10 -10 10 -5 0
-10 -4 -10 -10z"/>
<path d="M1799 3527 c-45 -17 -85 -47 -115 -88 -24 -34 -50 -122 -39 -139 13
-22 33 -9 40 28 10 59 48 107 106 136 66 32 99 33 167 1 40 -19 60 -36 84 -75
33 -53 58 -65 58 -27 0 38 -55 113 -104 142 -55 32 -143 42 -197 22z"/>
<path d="M3225 3324 c-16 -8 -37 -22 -46 -30 -8 -8 -31 -14 -50 -15 -19 0 -43
-4 -54 -9 -13 -6 14 -9 78 -9 60 -1 96 3 92 8 -17 29 74 37 160 15 28 -7 29
-6 16 10 -38 46 -137 61 -196 30z"/>
<path d="M1822 3300 c-51 -11 -64 -18 -59 -33 2 -7 42 -10 118 -8 123 2 179 9
179 21 0 20 -170 34 -238 20z"/>
<path d="M1580 3260 c-38 -7 -95 -34 -105 -49 -12 -20 17 -22 67 -5 39 12 72
15 139 12 105 -6 130 4 63 25 -64 20 -121 26 -164 17z"/>
<path d="M1677 3052 l-39 -17 131 0 c128 0 130 0 98 17 -42 23 -140 23 -190 0z"/>
<path d="M3579 3055 c-26 -8 -52 -22 -59 -30 -15 -18 -15 -18 75 -4 50 7 90 7
138 -2 38 -6 71 -9 74 -6 3 3 -14 15 -37 27 -55 28 -132 34 -191 15z"/>
<path d="M1463 2718 c-21 -23 -124 -222 -105 -203 38 38 113 143 122 171 16
47 9 60 -17 32z"/>
<path d="M3704 2624 c3 -8 6 -26 6 -39 0 -16 11 -29 33 -43 19 -11 47 -28 62
-38 25 -16 21 -8 -23 53 -49 67 -92 105 -78 67z"/>
<path d="M1864 2367 c-26 -19 -134 -109 -233 -194 l-26 -23 40 16 c86 35 210
138 246 206 12 22 11 22 -27 -5z"/>
<path d="M1070 1968 c0 -28 80 -191 135 -274 65 -101 109 -154 245 -303 257
-279 576 -454 923 -505 121 -18 315 -21 437 -6 110 14 281 57 300 75 19 20 8
19 -72 -4 -259 -74 -580 -75 -843 -2 -150 42 -359 146 -490 244 -99 74 -202
173 -209 202 -3 13 -41 59 -84 102 -107 108 -165 190 -247 347 -62 120 -95
163 -95 124z"/>
<path d="M2182 1565 c-38 -16 -56 -54 -42 -89 10 -28 20 -35 75 -56 54 -21 54
-45 0 -44 -22 0 -47 4 -57 8 -12 5 -18 1 -23 -15 -11 -33 18 -49 87 -49 70 0
98 21 98 73 0 40 -23 64 -68 73 -66 13 -67 60 -1 51 31 -4 41 -1 49 13 14 26
14 27 -21 39 -41 14 -57 13 -97 -4z"/>
<path d="M2488 1532 c-11 -26 -36 -80 -54 -121 -19 -41 -34 -78 -34 -82 0 -16
49 -9 58 8 14 25 120 25 128 1 3 -12 16 -18 36 -18 23 0 29 4 24 15 -3 9 -27
65 -53 125 -56 131 -74 143 -105 72z m62 -109 c0 -7 -11 -13 -25 -13 -28 0
-30 8 -13 45 l12 26 13 -23 c7 -13 12 -29 13 -35z"/>
<path d="M2720 1445 l0 -125 30 0 c29 0 30 1 30 50 l0 50 50 0 c47 0 50 2 50
25 0 23 -3 25 -50 25 -47 0 -50 2 -50 25 0 24 3 25 55 25 52 0 55 1 55 25 0
25 -1 25 -85 25 l-85 0 0 -125z"/>
<path d="M3100 1445 l0 -125 80 0 c79 0 80 0 80 25 0 23 -3 25 -50 25 -47 0
-50 2 -50 25 0 23 4 25 45 25 41 0 45 2 45 25 0 23 -4 25 -45 25 -41 0 -45 2
-45 25 0 23 3 25 50 25 47 0 50 2 50 25 0 25 -1 25 -80 25 l-80 0 0 -125z"/>
<path d="M3680 1426 c-69 -66 -167 -150 -218 -186 -51 -35 -92 -70 -92 -78 0
-45 295 190 411 329 75 89 24 57 -101 -65z"/>
<path d="M2170 1230 c0 -6 7 -13 15 -16 10 -4 15 -20 15 -45 0 -28 4 -39 15
-39 11 0 15 11 15 40 0 33 3 40 20 40 11 0 20 7 20 15 0 11 -12 15 -50 15 -28
0 -50 -5 -50 -10z"/>
<path d="M2308 1195 c-2 -24 -2 -49 0 -55 6 -16 22 -12 22 5 0 8 4 15 9 15 5
0 11 -7 15 -15 3 -8 12 -15 21 -15 12 0 14 4 5 19 -7 13 -7 22 0 26 17 10 11
44 -9 55 -42 22 -59 13 -63 -35z m50 3 c-6 -18 -28 -21 -28 -4 0 9 7 16 16 16
9 0 14 -5 12 -12z"/>
<path d="M2456 1207 c-20 -48 -28 -77 -22 -77 2 0 17 5 32 10 18 7 30 7 40 -1
27 -22 31 -3 11 49 -23 60 -41 66 -61 19z m37 -17 c3 -12 0 -20 -8 -20 -8 0
-11 8 -8 20 3 11 7 20 8 20 1 0 5 -9 8 -20z"/>
<path d="M2553 1213 c8 -42 25 -83 34 -83 5 0 18 25 30 55 17 44 18 55 7 55
-8 0 -19 -12 -25 -27 l-11 -28 -10 28 c-5 15 -14 27 -20 27 -6 0 -8 -12 -5
-27z"/>
<path d="M2660 1185 l0 -55 40 0 c22 0 40 5 40 10 0 6 -11 10 -25 10 -14 0
-25 5 -25 10 0 6 9 10 20 10 11 0 20 5 20 10 0 6 -9 10 -20 10 -11 0 -20 5
-20 10 0 6 9 10 20 10 11 0 20 7 20 15 0 10 -11 15 -35 15 l-35 0 0 -55z"/>
<path d="M2770 1185 l0 -55 36 0 c21 0 33 4 29 10 -3 6 -13 10 -21 10 -10 0
-14 12 -14 45 0 33 -4 45 -15 45 -12 0 -15 -13 -15 -55z"/>
<path d="M2883 1233 c-8 -3 -13 -23 -13 -54 l0 -49 35 0 c19 0 35 5 35 10 0 6
-9 10 -19 10 -16 0 -20 8 -23 43 -2 30 -7 42 -15 40z"/>
</g>
</svg>